<svg xmlns="http://www.w3.org/2000/svg" viewBox="0 0 86 86" aria-hidden="true">
  <defs>
    <path id="diamond" d="M0 -5 L1.7 -1.7 L5 0 L1.7 1.7 L0 5 L-1.7 1.7 L-5 0 L-1.7 -1.7 Z"/>
  </defs>
  <g fill="none" stroke="#d8bea2" stroke-width="1.25" stroke-linecap="round" stroke-linejoin="round">
    <path d="M14 86 V31 C14 20 20 14 31 14 H86"/>
    <path d="M20 86 V38"/>
    <path d="M31 22 C39 22 39 14 31 14"/>
    <path d="M22 31 C22 39 14 39 14 31"/>
    <path d="M27 14 C21 15 16 20 14 27"/>
    <path d="M14 56 C22 54 24 66 16 70"/>
    <path d="M20 58 C31 62 31 77 20 80"/>
  </g>
  <g fill="#d8bea2">
    <use href="#diamond" transform="translate(14 14) scale(1.15)"/>
    <use href="#diamond" transform="translate(48 14) scale(0.82)"/>
    <use href="#diamond" transform="translate(14 48) scale(0.82)"/>
    <circle cx="14" cy="31" r="2.1"/>
    <circle cx="31" cy="14" r="2.1"/>
    <circle cx="20" cy="70" r="1.6"/>
  </g>
</svg>
