<svg xmlns="http://www.w3.org/2000/svg" viewBox="0 0 160 158" aria-hidden="true">
  <defs>
    <filter id="softGlow" x="-30%" y="-30%" width="160%" height="160%">
      <feGaussianBlur in="SourceGraphic" stdDeviation="0.55" result="blur"/>
      <feMerge>
        <feMergeNode in="blur"/>
        <feMergeNode in="SourceGraphic"/>
      </feMerge>
    </filter>
  </defs>

  <g fill="none" stroke="#d8bea2" stroke-linecap="round" stroke-linejoin="round" filter="url(#softGlow)">
    <path d="M21 86 V50 C21 31 34 18 53 18 H144" stroke-width="2.5"/>

    <path d="M48 18 C34 19 25 29 22 42" stroke-width="1.7" opacity="0.96"/>
    <path d="M50 18 C38 22 40 34 49 36 C61 39 66 23 55 22" stroke-width="2.1"/>
    <path d="M43 40 C31 32 17 41 22 53 C27 65 43 58 37 48" stroke-width="2.1"/>
    <path d="M36 51 C29 55 25 63 29 70 C34 78 45 73 42 64 C40 58 33 60 34 67" stroke-width="1.85"/>
    <path d="M55 34 C63 42 77 37 75 27 C74 19 62 19 62 28" stroke-width="1.8"/>
    <path d="M70 21 C80 18 89 20 89 27 C89 34 79 35 78 29 C78 25 83 24 85 28" stroke-width="1.8"/>
    <path d="M96 20 C106 18 114 21 113 29 C112 36 103 37 102 31 C101 27 107 26 109 30" stroke-width="1.65"/>
    <path d="M46 48 C55 52 60 58 61 68" stroke-width="1.65"/>
    <path d="M37 36 C32 30 30 22 35 18 C42 12 49 20 45 26" stroke-width="1.85"/>
  </g>

  <g fill="#d8bea2" filter="url(#softGlow)">
    <circle cx="30" cy="27" r="5.5" fill="none" stroke="#d8bea2" stroke-width="1.65"/>
    <circle cx="66" cy="50" r="2.6"/>
    <circle cx="56" cy="61" r="2.25"/>
    <circle cx="72" cy="59" r="1.8"/>
    <path d="M61 55 C56 51 54 45 56 39 C61 43 64 49 61 55Z"/>
    <path d="M61 55 C68 53 73 56 77 61 C70 63 64 61 61 55Z"/>
    <path d="M61 55 C59 63 54 69 48 72 C48 64 53 58 61 55Z"/>
  </g>
</svg>
